<?xml version="1.0" encoding="UTF-8" standalone="no"?>
<!-- Created with Inkscape (http://www.inkscape.org/) -->

<svg
   width="210mm"
   height="297mm"
   viewBox="0 0 210 297"
   version="1.1"
   id="svg1"
   xml:space="preserve"
   sodipodi:docname="icons5.svg"
   inkscape:version="1.4 (86a8ad7, 2024-10-11)"
   xmlns:inkscape="http://www.inkscape.org/namespaces/inkscape"
   xmlns:sodipodi="http://sodipodi.sourceforge.net/DTD/sodipodi-0.dtd"
   xmlns="http://www.w3.org/2000/svg"
   xmlns:svg="http://www.w3.org/2000/svg"><sodipodi:namedview
     id="namedview1"
     pagecolor="#ffffff"
     bordercolor="#666666"
     borderopacity="1.0"
     inkscape:showpageshadow="2"
     inkscape:pageopacity="0.0"
     inkscape:pagecheckerboard="0"
     inkscape:deskcolor="#d1d1d1"
     inkscape:document-units="mm"
     inkscape:zoom="0.25990636"
     inkscape:cx="-500.18015"
     inkscape:cy="-157.74912"
     inkscape:window-width="2231"
     inkscape:window-height="1186"
     inkscape:window-x="2885"
     inkscape:window-y="114"
     inkscape:window-maximized="0"
     inkscape:current-layer="layer1" /><defs
     id="defs1" /><g
     inkscape:label="Ebene 1"
     inkscape:groupmode="layer"
     id="layer1"><path
       style="fill:#000000"
       d="m 99.968211,172.67794 -11.90625,-0.13762 -0.529167,-0.30643 c -0.892319,-0.51674 -1.658568,-1.48584 -2.228757,-2.8188 l -0.544603,-1.27315 0.0088,-20.01188 c 0.0049,-11.00653 0.122841,-21.20839 0.262181,-22.67081 l 0.253347,-2.65894 0.727623,-0.67194 c 0.400193,-0.36957 1.16279,-0.9382 1.694661,-1.26363 l 0.967036,-0.5917 15.987058,0.0722 15.98706,0.0722 0.98531,0.75166 c 0.54192,0.41342 1.7232,1.76637 2.62507,3.00657 0.90187,1.24021 2.38116,3.18465 3.28731,4.32098 0.90615,1.13634 1.83144,2.52565 2.05618,3.08735 l 0.40864,1.02127 -0.0718,5.36765 -0.0718,5.36765 -4.7678,0.0631 -4.7678,0.0631 -0.78845,0.41161 c -0.43364,0.22638 -1.60298,0.81483 -2.59852,1.30767 -2.69375,1.33351 -6.24525,4.9375 -7.31636,7.42448 -0.14575,0.33843 -0.37197,0.79392 -0.5027,1.0122 -0.13073,0.21828 -0.44681,1.54647 -0.7024,2.95154 l -0.46471,2.55466 0.1707,1.63314 c 0.32729,3.13133 1.88799,7.58751 2.97268,8.48772 0.20725,0.172 0.37682,0.47069 0.37682,0.66375 0,0.19306 0.41672,0.66886 0.92604,1.05734 1.09909,0.83831 1.17406,1.35607 0.24736,1.7084 -0.37327,0.14192 -0.70069,0.23067 -0.7276,0.19722 -0.0269,-0.0335 -5.40674,-0.12275 -11.955174,-0.19844 z m 9.239949,-37.15368 0.88857,-0.37127 0.31921,-0.96721 0.31921,-0.96721 -0.32653,-0.7883 c -0.17959,-0.43356 -0.57809,-0.92652 -0.88555,-1.09545 l -0.55902,-0.30716 -8.02151,0.0529 c -8.348026,0.0551 -8.718828,0.10375 -9.464835,1.2423 l -0.420714,0.64209 0.307576,0.93197 c 0.169167,0.51258 0.61267,1.17195 0.985562,1.46526 l 0.677986,0.53331 h 7.645735 7.64573 z m 12.38974,33.26896 -0.33073,-0.13346 v -8.68756 c 0,-11.12714 -0.01,-11.10969 3.97554,-7.14334 0.36553,0.3638 2.12089,1.90553 3.90079,3.42605 l 3.23617,2.7646 v 0.60884 c 0,0.57467 -0.82422,1.66718 -1.25776,1.66718 -0.10969,0 -0.86655,0.62508 -1.68192,1.38906 -3.31994,3.11072 -7.0534,6.29724 -7.33795,6.26297 -0.0954,-0.0115 -0.32224,-0.0809 -0.50414,-0.15434 z"
       id="path7" /></g></svg>
