<?xml version="1.0" encoding="UTF-8" standalone="no"?>
<!-- Created with Inkscape (http://www.inkscape.org/) -->

<svg
   width="210mm"
   height="297mm"
   viewBox="0 0 210 297"
   version="1.1"
   id="svg1"
   xml:space="preserve"
   sodipodi:docname="icons3.svg"
   inkscape:version="1.4 (86a8ad7, 2024-10-11)"
   xmlns:inkscape="http://www.inkscape.org/namespaces/inkscape"
   xmlns:sodipodi="http://sodipodi.sourceforge.net/DTD/sodipodi-0.dtd"
   xmlns="http://www.w3.org/2000/svg"
   xmlns:svg="http://www.w3.org/2000/svg"><sodipodi:namedview
     id="namedview1"
     pagecolor="#ffffff"
     bordercolor="#666666"
     borderopacity="1.0"
     inkscape:showpageshadow="2"
     inkscape:pageopacity="0.0"
     inkscape:pagecheckerboard="0"
     inkscape:deskcolor="#d1d1d1"
     inkscape:document-units="mm"
     inkscape:zoom="0.25990636"
     inkscape:cx="-500.18015"
     inkscape:cy="-157.74912"
     inkscape:window-width="2231"
     inkscape:window-height="1186"
     inkscape:window-x="2885"
     inkscape:window-y="114"
     inkscape:window-maximized="0"
     inkscape:current-layer="layer1" /><defs
     id="defs1" /><g
     inkscape:label="Ebene 1"
     inkscape:groupmode="layer"
     id="layer1"><path
       style="fill:#000000"
       d="m 346.42604,-92.658218 c -1.59766,-0.41594 -3.20501,-0.99696 -3.57187,-1.29115 -0.36686,-0.29419 -1.22983,-0.833483 -1.91771,-1.198429 -0.71132,-0.377381 -1.42732,-1.005105 -1.66026,-1.455564 -0.22526,-0.435616 -0.91261,-1.2982 -1.52744,-1.916855 l -1.11786,-1.124828 -0.7076,-2.116666 c -0.38918,-1.16417 -0.83566,-2.7476 -0.99219,-3.51875 l -0.28459,-1.40209 0.004,-31.14166 0.004,-31.14166 0.52855,-2.50441 c 0.57791,-2.73828 0.83594,-3.22585 3.71535,-7.02059 1.73467,-2.28609 4.54357,-3.83639 8.35708,-4.61247 l 2.6874,-0.5469 h 30.27078 30.27078 l 1.56995,0.28343 c 0.86347,0.15588 2.55181,0.57969 3.75187,0.94178 l 2.18193,0.65835 0.26212,0.48978 c 0.14417,0.26938 0.65156,0.73046 1.12754,1.02464 0.91054,0.56274 3.18904,3.14539 4.35506,4.93639 0.38859,0.59688 0.92408,2.09661 1.22813,3.43958 l 0.53912,2.38125 0.0998,30.95625 0.0999,30.95625 -0.31476,1.85208 c -0.52693,3.10058 -0.77917,3.84656 -1.91445,5.66185 -1.26446,2.021853 -3.61353,4.774062 -4.08242,4.783037 -0.17684,0.0034 -0.72878,0.363734 -1.22655,0.800777 -1.28247,1.126028 -2.47734,1.557348 -5.91967,2.136838 l -3.01839,0.50812 -29.94652,-0.0311 -29.94651,-0.0311 z m 65.02992,-6.423267 c 2.94721,-0.61062 6.28419,-3.175115 6.66466,-5.121825 0.0788,-0.40337 0.31988,-1.28516 0.53566,-1.95953 l 0.39232,-1.22614 -0.002,-29.9947 -0.002,-29.99469 -0.52571,-2.19284 c -1.12926,-4.71042 -3.38647,-6.61221 -8.52214,-7.18027 l -2.56926,-0.28418 -28.38699,0.004 -28.38699,0.004 -2.04461,0.51525 c -3.76131,0.94788 -5.89826,2.92899 -6.85577,6.35579 l -0.33268,1.19062 -0.0883,30.81485 -0.0883,30.81485 0.52662,1.7289 c 1.2353,4.05552 3.46514,5.98058 7.77672,6.713768 l 1.80414,0.306797 29.01981,-0.03351 29.01981,-0.0335 z m -50.4834,-6.509325 c -1.01864,-0.2522 -2.34581,-0.6627 -2.94926,-0.91221 l -1.09717,-0.45367 -1.70391,-2.03556 c -2.04998,-2.44899 -2.12811,-2.59247 -2.69045,-4.94029 l -0.44359,-1.85208 0.0766,-26.19375 0.0766,-26.19375 0.33858,-0.59257 c 0.18621,-0.32592 0.70388,-0.78149 1.15036,-1.01237 l 0.81179,-0.4198 1.23089,0.2997 c 1.42314,0.3465 1.92461,0.67325 2.44444,1.59275 l 0.37394,0.66146 0.13681,25.79687 0.1368,25.79687 0.48876,1.27255 0.48875,1.27254 1.09424,0.69598 1.09423,0.69598 1.52001,0.1137 1.52002,0.1137 1.47004,-0.71922 1.47004,-0.71923 0.71411,-1.0788 0.71411,-1.0788 0.15515,-22.77378 c 0.0853,-12.52558 0.25046,-23.11384 0.36695,-23.52947 0.60333,-2.15278 2.90547,-5.09143 5.2647,-6.72032 l 1.81804,-1.25524 3.47812,-0.0855 3.47811,-0.0855 1.52201,0.56946 1.52201,0.56945 1.97923,1.92227 c 1.08857,1.05724 1.97922,2.11025 1.97922,2.34001 0,0.22976 0.29144,0.76411 0.64765,1.18743 l 0.64765,0.76969 0.26905,2.14572 c 0.16105,1.28444 0.27395,10.57964 0.28127,23.15707 l 0.0122,21.01134 0.40443,1.36186 0.40442,1.36186 1.37864,0.79066 1.37863,0.79067 1.11913,0.002 c 2.34002,0.005 4.04412,-1.29054 4.89861,-3.72472 l 0.317,-0.90301 0.13992,-26.01834 0.13992,-26.01833 0.74236,-0.63844 0.74236,-0.63843 h 1.21079 1.21078 l 0.89448,0.55282 c 0.49196,0.30405 1.04179,0.81006 1.22185,1.12448 l 0.32738,0.57166 0.0817,25.46508 0.0817,25.46507 -0.41572,1.62271 c -0.22865,0.89249 -0.87514,2.60309 -1.43666,3.80134 l -1.02094,2.17863 -1.22475,0.84265 c -0.67361,0.46345 -1.22474,0.93394 -1.22474,1.04551 0,0.53388 -3.48799,1.66292 -6.22622,2.01538 l -1.33142,0.17139 -1.84358,-0.51893 c -2.827,-0.79573 -3.22118,-0.99903 -4.76138,-2.45569 -1.90734,-1.80388 -2.92814,-3.45635 -3.41735,-5.53198 l -0.4039,-1.71366 -0.0102,-21.43125 c -0.0109,-22.87961 10e-4,-22.65932 -1.35263,-24.74852 -1.03988,-1.60481 -1.52938,-1.8421 -3.79993,-1.8421 -2.18744,0 -2.28742,0.0492 -3.62775,1.78623 l -1.13916,1.47631 -0.14305,22.64425 -0.14304,22.64424 -0.39924,1.32292 c -0.86045,2.85117 -3.98861,6.23025 -6.71031,7.24857 -1.28192,0.47962 -2.14684,0.63545 -5.17207,0.93182 -0.50932,0.0499 -1.75948,-0.11562 -2.77813,-0.36782 z"
       id="path6" /></g></svg>
