<?xml version="1.0" encoding="UTF-8" standalone="no"?>
<!-- Erzeugt aus standard.svg: gleiches Motiv ohne Rahmen (nur die Bahnen).
     Die Pfaddaten sind zeichengenau uebernommen, ersetzt ist nur der einleitende
     Sprung: im Original relativ zum vorherigen Teilpfad, hier absolut. -->
<svg xmlns="http://www.w3.org/2000/svg" width="210mm" height="297mm" viewBox="0 0 210 297" version="1.1">
  <g><path style="fill:#000000" d="M-79.80794,-102.52928c -1.62566,-0.3223 -2.84016,-0.89614 -4.67122,-2.2071 -2.97692,-2.13133 -3.76781,-3.34293 -5.28975,-8.10353 l -0.5498,-1.71979 -0.0239,-24.47396 -0.0239,-24.47396 0.5155,-0.85217 c 1.00453,-1.66057 3.42602,-2.12619 4.65677,-0.89543 l 0.76595,0.76595 0.0108,24.78601 0.0108,24.786 0.36164,0.70795 c 0.1989,0.38936 0.44213,1.06513 0.54051,1.50169 0.0984,0.43656 0.79733,1.47999 1.55322,2.31874 l 1.37434,1.52498 1.77886,0.50484 1.77885,0.50483 1.91346,-0.26517 c 2.99948,-0.41566 4.80752,-1.85571 6.25617,-4.98284 l 0.67308,-1.45296 0.10223,-19.44913 0.10222,-19.44912 0.51059,-1.86897 c 0.28082,-1.02792 0.51058,-2.17752 0.51058,-2.55465 0,-0.39772 0.39369,-1.15691 0.93742,-1.80771 0.51558,-0.61711 1.05414,-1.34012 1.19681,-1.60669 0.28039,-0.52391 3.65458,-3.10319 4.90433,-3.74893 1.21543,-0.62801 2.70971,-0.94567 5.15531,-1.09593 l 2.27198,-0.1396 1.96135,0.53641 1.96135,0.53642 1.75415,1.19973 c 1.89545,1.29638 4.72814,4.35332 4.72814,5.10245 0,0.25407 0.38615,1.04493 0.85812,1.75747 l 0.85811,1.29552 0.22067,5.69515 c 0.12136,3.13234 0.16089,14.90929 0.0878,26.17101 l -0.13284,20.47586 -0.41763,0.41762 -0.41763,0.41763 -1.78936,0.10111 -1.78937,0.10111 -0.65718,-0.53203 -0.65718,-0.53204 -0.13229,-25.22505 -0.13229,-25.22506 -0.60737,-1.32292 c -1.78498,-3.88787 -5.64194,-5.50026 -10.475,-4.37905 l -1.02821,0.23853 -1.17066,1.14422 c -1.38366,1.35241 -2.15646,2.53193 -2.53699,3.87221 l -0.27715,0.97618 -0.18749,19.57916 c -0.11104,11.59627 -0.30429,20.38021 -0.47397,21.54385 l -0.28648,1.96467 -1.26792,1.85389 c -2.2487,3.28793 -4.55015,5.18608 -7.09006,5.84765 l -1.56509,0.40765 -2.78868,-0.029 c -1.53378,-0.0159 -3.27604,-0.12561 -3.8717,-0.24371 z"/></g>
</svg>
