<?xml version="1.0" encoding="UTF-8" standalone="no"?>
<!-- Created with Inkscape (http://www.inkscape.org/) -->

<svg
   width="210mm"
   height="297mm"
   viewBox="0 0 210 297"
   version="1.1"
   id="svg1"
   xml:space="preserve"
   sodipodi:docname="icons2.svg"
   inkscape:version="1.4 (86a8ad7, 2024-10-11)"
   xmlns:inkscape="http://www.inkscape.org/namespaces/inkscape"
   xmlns:sodipodi="http://sodipodi.sourceforge.net/DTD/sodipodi-0.dtd"
   xmlns="http://www.w3.org/2000/svg"
   xmlns:svg="http://www.w3.org/2000/svg"><sodipodi:namedview
     id="namedview1"
     pagecolor="#ffffff"
     bordercolor="#666666"
     borderopacity="1.0"
     inkscape:showpageshadow="2"
     inkscape:pageopacity="0.0"
     inkscape:pagecheckerboard="0"
     inkscape:deskcolor="#d1d1d1"
     inkscape:document-units="mm"
     inkscape:zoom="0.25990636"
     inkscape:cx="-500.18015"
     inkscape:cy="-157.74912"
     inkscape:window-width="2231"
     inkscape:window-height="1186"
     inkscape:window-x="2885"
     inkscape:window-y="114"
     inkscape:window-maximized="0"
     inkscape:current-layer="layer1" /><defs
     id="defs1" /><g
     inkscape:label="Ebene 1"
     inkscape:groupmode="layer"
     id="layer1"><path
       style="fill:#000000"
       d="m -97.378052,-89.070707 c -5.144178,-0.864652 -7.925288,-2.809803 -10.724598,-7.500949 l -1.44049,-2.414019 -0.30843,-1.701595 -0.30843,-1.7016 -0.15746,-30.69167 c -0.0866,-16.88041 -0.0805,-31.04885 0.0136,-31.48541 0.0941,-0.43657 0.31906,-1.89065 0.49997,-3.23131 l 0.32894,-2.43755 1.01623,-1.39891 c 2.27507,-3.13176 2.82294,-3.73607 4.5659,-5.03629 l 1.81958,-1.35738 2.942918,-0.75466 2.94292,-0.75466 29.76562,0.005 29.76563,0.005 2.38125,0.29854 c 3.86536,0.48459 5.08138,0.76914 5.90895,1.38271 0.43022,0.31897 1.35643,0.99666 2.05823,1.50599 0.70181,0.50932 1.51801,1.20688 1.81379,1.55013 2.67796,3.10778 2.71209,3.16766 3.41415,5.99049 l 0.52644,2.11667 0.15068,31.35312 c 0.0829,17.24422 0.0632,31.76985 -0.0438,32.27917 -1.00957,4.807677 -1.52257,6.449375 -2.19098,7.011457 -0.17305,0.145521 -0.99769,1.134784 -1.83254,2.198363 -0.83485,1.063579 -1.82147,2.049193 -2.19249,2.190253 -0.37101,0.14106 -1.01382,0.541934 -1.42846,0.89083 -0.42854,0.360588 -1.41179,0.763832 -2.27831,0.934366 -0.83843,0.165004 -2.0602,0.469041 -2.71505,0.675636 l -1.19062,0.375628 -30.82396,-0.02616 c -17.50637,-0.01486 -31.45269,-0.131837 -32.27917,-0.270754 z m 62.44167,-5.634238 c 0.50932,-0.10943 1.69995,-0.422058 2.64583,-0.69473 l 1.71979,-0.495766 1.47748,-1.659215 c 1.67465,-1.880639 1.94023,-2.318887 2.6429,-4.361234 l 0.5022,-1.45969 0.0122,-29.99651 0.0121,-29.99651 -0.30767,-1.7893 c -0.16922,-0.98412 -0.70984,-2.59217 -1.20138,-3.57345 l -0.89371,-1.78415 -0.99365,-0.62727 c -0.5465,-0.34499 -1.15499,-0.82167 -1.35219,-1.05928 -0.1972,-0.23761 -1.14795,-0.69929 -2.11278,-1.02596 l -1.75424,-0.59394 -28.575,-0.0814 -28.575,-0.0814 -2.24896,0.28657 c -3.06423,0.39045 -5.77523,1.2483 -6.822218,2.15877 -0.47801,0.41568 -0.98202,0.75578 -1.12003,0.75578 -0.41472,0 -1.54381,2.48616 -2.25081,4.95607 l -0.66407,2.31997 0.0707,30.42708 0.0708,30.42709 0.88287,1.8831 0.88288,1.883105 1.50293,1.487255 1.502938,1.487254 2.11211,0.574787 2.1121,0.574786 3.175,0.155897 c 4.60485,0.226103 56.44947,0.138104 57.54688,-0.09768 z m -44.87156,-7.824335 c -1.62566,-0.3223 -2.84016,-0.89614 -4.67122,-2.2071 -2.97692,-2.13133 -3.76781,-3.34293 -5.28975,-8.10353 l -0.5498,-1.71979 -0.0239,-24.47396 -0.0239,-24.47396 0.5155,-0.85217 c 1.00453,-1.66057 3.42602,-2.12619 4.65677,-0.89543 l 0.76595,0.76595 0.0108,24.78601 0.0108,24.786 0.36164,0.70795 c 0.1989,0.38936 0.44213,1.06513 0.54051,1.50169 0.0984,0.43656 0.79733,1.47999 1.55322,2.31874 l 1.37434,1.52498 1.77886,0.50484 1.77885,0.50483 1.91346,-0.26517 c 2.99948,-0.41566 4.80752,-1.85571 6.25617,-4.98284 l 0.67308,-1.45296 0.10223,-19.44913 0.10222,-19.44912 0.51059,-1.86897 c 0.28082,-1.02792 0.51058,-2.17752 0.51058,-2.55465 0,-0.39772 0.39369,-1.15691 0.93742,-1.80771 0.51558,-0.61711 1.05414,-1.34012 1.19681,-1.60669 0.28039,-0.52391 3.65458,-3.10319 4.90433,-3.74893 1.21543,-0.62801 2.70971,-0.94567 5.15531,-1.09593 l 2.27198,-0.1396 1.96135,0.53641 1.96135,0.53642 1.75415,1.19973 c 1.89545,1.29638 4.72814,4.35332 4.72814,5.10245 0,0.25407 0.38615,1.04493 0.85812,1.75747 l 0.85811,1.29552 0.22067,5.69515 c 0.12136,3.13234 0.16089,14.90929 0.0878,26.17101 l -0.13284,20.47586 -0.41763,0.41762 -0.41763,0.41763 -1.78936,0.10111 -1.78937,0.10111 -0.65718,-0.53203 -0.65718,-0.53204 -0.13229,-25.22505 -0.13229,-25.22506 -0.60737,-1.32292 c -1.78498,-3.88787 -5.64194,-5.50026 -10.475,-4.37905 l -1.02821,0.23853 -1.17066,1.14422 c -1.38366,1.35241 -2.15646,2.53193 -2.53699,3.87221 l -0.27715,0.97618 -0.18749,19.57916 c -0.11104,11.59627 -0.30429,20.38021 -0.47397,21.54385 l -0.28648,1.96467 -1.26792,1.85389 c -2.2487,3.28793 -4.55015,5.18608 -7.09006,5.84765 l -1.56509,0.40765 -2.78868,-0.029 c -1.53378,-0.0159 -3.27604,-0.12561 -3.8717,-0.24371 z"
       id="path7" /></g></svg>
