<?xml version="1.0" encoding="UTF-8" standalone="no"?>
<!-- Created with Inkscape (http://www.inkscape.org/) -->

<svg
   width="210mm"
   height="297mm"
   viewBox="0 0 210 297"
   version="1.1"
   id="svg1"
   xml:space="preserve"
   sodipodi:docname="icons4.svg"
   inkscape:version="1.4 (86a8ad7, 2024-10-11)"
   xmlns:inkscape="http://www.inkscape.org/namespaces/inkscape"
   xmlns:sodipodi="http://sodipodi.sourceforge.net/DTD/sodipodi-0.dtd"
   xmlns="http://www.w3.org/2000/svg"
   xmlns:svg="http://www.w3.org/2000/svg"><sodipodi:namedview
     id="namedview1"
     pagecolor="#ffffff"
     bordercolor="#666666"
     borderopacity="1.0"
     inkscape:showpageshadow="2"
     inkscape:pageopacity="0.0"
     inkscape:pagecheckerboard="0"
     inkscape:deskcolor="#d1d1d1"
     inkscape:document-units="mm"
     inkscape:zoom="0.25990636"
     inkscape:cx="-500.18015"
     inkscape:cy="-157.74912"
     inkscape:window-width="2231"
     inkscape:window-height="1186"
     inkscape:window-x="2885"
     inkscape:window-y="114"
     inkscape:window-maximized="0"
     inkscape:current-layer="layer1" /><defs
     id="defs1" /><g
     inkscape:label="Ebene 1"
     inkscape:groupmode="layer"
     id="layer1"><path
       style="fill:#000000"
       d="m 214.27856,-98.006761 c -2.56605,-0.40457 -5.5738,-1.4438 -6.1347,-2.119649 -0.17171,-0.20689 -0.76266,-0.60597 -1.31323,-0.88685 -0.55057,-0.28089 -1.12927,-0.7503 -1.286,-1.04315 -0.15673,-0.29285 -0.8324,-1.14884 -1.50148,-1.90219 -1.51484,-1.70562 -2.01843,-2.83366 -2.86553,-6.41875 l -0.67012,-2.83607 0.0787,-30.73305 0.0787,-30.73305 0.58318,-2.69084 0.58319,-2.69084 1.20544,-1.72439 c 2.85673,-4.0866 6.18715,-6.34687 10.58035,-7.18064 l 2.38125,-0.45193 30.95147,0.0418 30.95147,0.0418 1.19541,0.35186 c 0.65747,0.19353 1.8589,0.54353 2.66983,0.77778 l 1.47442,0.42591 1.90032,1.47656 1.90033,1.47655 1.6043,2.25736 1.6043,2.25736 0.53951,2.02205 c 0.29674,1.11213 0.64872,2.61736 0.7822,3.34496 0.13846,0.75475 0.23806,14.27713 0.23193,31.48542 l -0.0108,30.1625 -0.54346,2.60091 c -0.65795,3.1488 -1.21232,4.4973 -2.60039,6.32537 -1.75131,2.30647 -2.45134,2.98513 -4.40057,4.26625 l -1.86429,1.225289 -1.56996,0.29022 c -0.86348,0.15962 -1.89387,0.45772 -2.28976,0.66245 l -0.71981,0.37222 -30.50637,-0.0285 -30.50637,-0.0285 z m 62.83855,-6.675619 c 4.04871,-0.83972 6.08728,-2.6724 7.4487,-6.69642 l 0.62301,-1.84146 -0.006,-29.6713 -0.006,-29.6713 -0.558,-2.45335 c -0.8306,-3.65191 -2.58248,-5.80763 -5.78168,-7.11446 l -1.19063,-0.48635 h -30.95625 -30.95625 l -1.97034,0.58967 -1.97035,0.58968 -1.36683,1.34984 c -1.79817,1.77584 -2.39259,3.04106 -2.8947,6.16139 l -0.416,2.58524 0.0347,28.89021 0.0347,28.89022 0.52096,1.71979 c 0.75636,2.49691 1.43396,3.75022 2.68586,4.96787 l 1.10875,1.07841 1.71979,0.58497 c 2.64765,0.90057 3.0472,0.91107 33.60208,0.88299 l 28.7073,-0.0264 z m -49.74167,-6.54467 c -0.29104,-0.0651 -1.2477,-0.35016 -2.12591,-0.6334 l -1.59674,-0.51496 -1.89692,-1.9156 -1.89693,-1.91559 -0.73967,-1.5875 -0.73967,-1.5875 -0.0698,-27.45893 -0.0698,-27.45892 0.65306,-0.65306 0.65306,-0.65305 h 1.22881 c 1.48118,0 2.90892,0.62984 3.51141,1.54904 l 0.4432,0.67619 0.1323,26.20561 0.13229,26.20562 0.48814,0.80584 c 0.59943,0.98958 1.9002,1.90731 3.2198,2.27167 l 0.99229,0.27398 1.61863,-0.27979 1.61864,-0.2798 0.8753,-0.99908 c 0.48141,-0.54949 1.07672,-1.29146 1.32291,-1.64883 l 0.44762,-0.64976 0.0482,-21.57524 c 0.0265,-11.86639 0.12095,-22.35795 0.20986,-23.31458 l 0.16166,-1.73933 0.84847,-1.42047 c 1.06539,-1.78364 3.91283,-4.56468 5.47868,-5.35094 l 1.19062,-0.59784 h 3.83646 3.83646 l 0.89298,0.48692 c 1.82478,0.99502 3.87801,2.89032 4.71043,4.34812 0.4625,0.80997 1.02106,1.57349 1.24123,1.6967 0.68122,0.38123 0.72521,1.80816 0.77747,25.21826 l 0.0508,22.75417 0.53347,0.92604 0.53347,0.92604 1.4322,0.7276 c 1.73872,0.88333 2.96208,0.91912 4.5224,0.13229 l 1.18054,-0.59531 0.8599,-1.6947 0.85989,-1.69469 0.001,-1.74489 c 0.003,-3.29527 0.69069,-4.48709 2.72206,-4.71606 l 1.15752,-0.13047 0.83312,0.43082 c 1.16268,0.60125 1.66814,1.75077 1.83402,4.17097 l 0.14259,2.08035 -0.47531,1.78163 c -0.68954,2.58463 -1.55546,4.41529 -2.56688,5.42671 -0.48815,0.48815 -1.12183,1.20851 -1.40818,1.60081 l -0.52063,0.71325 -1.85208,0.70203 -1.85208,0.70203 -2.45748,0.1071 -2.45749,0.10711 -1.93468,-0.57435 -1.93468,-0.57434 -1.97342,-1.80057 -1.97341,-1.80057 -0.91046,-1.94296 -0.91047,-1.94296 -0.0247,-22.6459 -0.0247,-22.64591 -0.76659,-1.51396 c -0.42162,-0.83268 -0.98837,-1.71484 -1.25945,-1.96035 l -0.49286,-0.44638 -2.28771,-0.0759 c -1.25824,-0.0418 -2.40677,0.0178 -2.55229,0.13229 -0.38334,0.30167 -1.84614,2.2265 -2.20601,2.9028 l -0.30753,0.57792 -0.009,20.32416 c -0.005,11.17829 -0.11278,21.48041 -0.23909,22.89359 l -0.22965,2.56942 -0.86652,1.87994 -0.86652,1.87993 -2.07407,1.83063 c -1.14074,1.00685 -2.39939,1.90497 -2.797,1.99582 -0.39761,0.0908 -1.2331,0.33071 -1.85665,0.53303 -1.05832,0.34339 -4.79372,0.46025 -6.01002,0.18803 z m 43.39167,-21.76699 c -0.63453,-0.26072 -3.01218,-3.16175 -3.80602,-4.64381 -0.31178,-0.58209 -1.15901,-1.95131 -1.88274,-3.04271 -1.68542,-2.54168 -2.11441,-3.47645 -2.29494,-5.00067 l -0.14649,-1.23695 0.70866,-0.8422 c 0.83038,-0.98685 2.16716,-1.42601 3.70084,-1.2158 l 1.09537,0.15014 0.38406,-0.46276 0.38406,-0.46276 0.0507,-11.53255 c 0.0559,-12.72771 0.0693,-12.90591 1.03746,-13.81546 l 0.67802,-0.63697 1.17763,0.0456 c 0.64769,0.0251 1.56115,0.26898 2.0299,0.54204 l 0.85229,0.49646 0.36715,1.0448 0.36715,1.0448 0.0835,11.20614 0.0834,11.20613 0.41539,0.63397 0.4154,0.63397 h 1.44493 1.44494 l 0.80711,0.72761 c 1.42252,1.28239 1.31114,3.76559 -0.25745,5.73939 -0.42921,0.5401 -1.26719,1.83605 -1.86218,2.87989 -3.30837,5.80416 -5.11693,7.42974 -7.27809,6.54172 z"
       id="path5" /></g></svg>
